<mxfile host="app.diagrams.net" modified="2024-04-14T21:19:27.734Z" agent="Mozilla/5.0 (Windows NT 10.0; Win64; x64) AppleWebKit/537.36 (KHTML, like Gecko) Chrome/123.0.0.0 Safari/537.36" version="24.2.2" etag="AhnAhUlS16ONgplat6ir" type="github">
  <diagram name="Page-1" id="3aJ2S0uT-z_0Hs6EvXRP">
    <mxGraphModel>
      <root>
        <mxCell id="0" />
        <mxCell id="1" parent="0" />
      </root>
    </mxGraphModel>
  </diagram>
</mxfile>
